<svg id="Glyph" enable-background="new 0 0 64 64" height="512" viewBox="0 0 64 64" width="512" xmlns="http://www.w3.org/2000/svg"><path d="m59 38c0-3.31-2.69-6-6-6s-6 2.69-6 6c0 1.52.56 2.9 1.49 3.95 1.42-.23 2.51-1.47 2.51-2.95h2c0 1.9-1.06 3.55-2.62 4.4.79.38 1.68.6 2.62.6 3.31 0 6-2.69 6-6z"/><path d="m11 39h2c0 1.48 1.09 2.72 2.51 2.95.93-1.05 1.49-2.43 1.49-3.95 0-3.31-2.69-6-6-6s-6 2.69-6 6 2.69 6 6 6c.94 0 1.83-.22 2.62-.6-1.56-.85-2.62-2.5-2.62-4.4z"/><path d="m29 44c-3.967 0-7.383 2.315-9 5.663-1.617-3.348-5.033-5.663-9-5.663-5.523 0-10 4.477-10 10v8h38v-8c0-5.523-4.477-10-10-10zm-16 5h-1v6h-2v-6h-1v-2h4z"/><path d="m53 44c-5.523 0-10 4.477-10 10v8h20v-8c0-5.523-4.477-10-10-10zm1 9h-2v-2h2zm0-4h-2v-2h2z"/><path d="m23 20h6v6l6-6h4v-18h-16zm9-4h-2v-2h2zm-6-11h10v4.781l-4 1v1.219h-2v-2.781l4-1v-1.219h-6v1h-2z"/><path d="m11 26v-6h8v-18h-17v18h4zm-4.293-15.707 2.293 2.293 5.293-5.293 1.414 1.414-6.707 6.707-3.707-3.707z"/><path d="m54 27 4-7h4v-18h-16v18h4zm2-20h2v2h-2zm-6 0h2v2h-2zm2 4c0 1.103.897 2 2 2s2-.897 2-2h2c0 2.206-1.794 4-4 4s-4-1.794-4-4z"/><path d="m35 38c0-3.31-2.69-6-6-6-2.61 0-4.83 1.67-5.65 4h-4.35v2h4c0 1.52.56 2.9 1.49 3.95 1.42-.23 2.51-1.47 2.51-2.95h2c0 1.9-1.06 3.55-2.62 4.4.79.38 1.68.6 2.62.6 3.31 0 6-2.69 6-6z"/></svg>