<svg id="Capa_1" enable-background="new 0 0 512 512" height="512" viewBox="0 0 512 512" width="512" xmlns="http://www.w3.org/2000/svg"><g><circle cx="452.074" cy="59.926" r="60"/><circle cx="59.926" cy="452.074" r="60"/><circle cx="59.926" cy="59.926" r="60"/><circle cx="452.074" cy="452.074" r="60"/><path d="m202.967 202.967c-13.79 13.79-34.578 16.76-51.123 8.698l-44.337 44.335 63.64 63.64-10.607 10.605c-5.94 5.942-5.94 15.273 0 21.215 5.942 5.94 15.273 5.94 21.215 0l10.605-10.607 63.64 63.64 44.335-44.337c-8.062-16.545-5.092-37.333 8.698-51.123s34.578-16.76 51.123-8.698l44.337-44.335-63.64-63.64 10.607-10.605c5.94-5.942 5.94-15.273 0-21.215-5.942-5.94-15.273-5.94-21.215 0l-10.605 10.607-63.64-63.64-44.335 44.337c8.062 16.546 5.092 37.333-8.698 51.123z"/><path d="m430.86 282.367-5.154-5.154c-3.171 3.171-66.709 66.709-63.64 63.64l-10.605-10.607c-5.942-5.94-15.273-5.94-21.215 0-5.94 5.942-5.94 15.273 0 21.215l10.607 10.605c-2.763 2.763-66.848 66.848-63.64 63.64l5.154 5.154c29.275 29.275 76.793 29.275 106.068 0l42.426-42.426c29.274-29.274 29.274-76.792-.001-106.067z"/><path d="m81.14 229.633 5.154 5.154c3.171-3.171 66.709-66.709 63.64-63.64l10.605 10.607c5.942 5.94 15.273 5.94 21.215 0 5.94-5.942 5.94-15.273 0-21.215l-10.607-10.605c2.763-2.763 66.848-66.848 63.64-63.64l-5.154-5.154c-29.275-29.275-76.793-29.275-106.068 0l-42.425 42.426c-29.275 29.274-29.275 76.792 0 106.067z"/><path d="m321.55 130.631c16.545-8.064 37.333-5.092 51.123 8.696 13.788 13.79 16.76 34.578 8.696 51.123 2.84 2.84 46.516 46.514 44.337 44.337l5.154-5.154c29.275-29.275 29.275-76.793 0-106.068l-42.426-42.425c-29.275-29.275-76.793-29.275-106.068 0l-5.154 5.154c2.425 2.423 47.099 47.099 44.338 44.337z"/><path d="m229.633 430.86 5.154-5.154c-2.424-2.422-47.098-47.098-44.337-44.337-16.545 8.064-37.333 5.092-51.123-8.696-13.788-13.79-16.76-34.578-8.696-51.123-2.84-2.84-46.516-46.514-44.337-44.337l-5.154 5.154c-29.275 29.275-29.275 76.793 0 106.068l42.426 42.426c29.274 29.274 76.792 29.274 106.067-.001z"/></g></svg>