<?xml version="1.0" encoding="UTF-8" standalone="no"?>
<svg
   xmlns:dc="http://purl.org/dc/elements/1.1/"
   xmlns:cc="http://creativecommons.org/ns#"
   xmlns:rdf="http://www.w3.org/1999/02/22-rdf-syntax-ns#"
   xmlns:svg="http://www.w3.org/2000/svg"
   xmlns="http://www.w3.org/2000/svg"
   xmlns:sodipodi="http://sodipodi.sourceforge.net/DTD/sodipodi-0.dtd"
   xmlns:inkscape="http://www.inkscape.org/namespaces/inkscape"
   inkscape:export-ydpi="150"
   inkscape:export-xdpi="150"
   inkscape:export-filename="C:\Users\Phil Gray\Desktop\Portfolio\Websites\Ten2One\ten2one_logo.png"
   inkscape:version="1.0 (4035a4fb49, 2020-05-01)"
   sodipodi:docname="ten2one_logo.svg"
   width="15.290938mm"
   height="15.297852mm"
   viewBox="0 0 24.561822 148.16029"
   version="1.1"
   id="svg8">
  <sodipodi:namedview
     fit-margin-bottom="0"
     fit-margin-right="0"
     fit-margin-left="0"
     fit-margin-top="0"
     units="mm"
     showborder="false"
     inkscape:pagecheckerboard="false"
     inkscape:current-layer="logo"
     inkscape:window-maximized="1"
     inkscape:window-y="-11"
     inkscape:window-x="-11"
     inkscape:cy="31.259067"
     inkscape:cx="87.231854"
     inkscape:zoom="5.49"
     showgrid="false"
     id="namedview861"
     inkscape:window-height="986"
     inkscape:window-width="1920"
     inkscape:pageshadow="2"
     inkscape:pageopacity="0"
     guidetolerance="10"
     gridtolerance="10"
     objecttolerance="10"
     borderopacity="1"
     bordercolor="#666666"
     pagecolor="#ffffff" />
  <defs
     id="defs2" />
  <metadata
     id="metadata5">
    <rdf:RDF>
      <cc:Work
         rdf:about="">
        <dc:format>image/svg+xml</dc:format>
        <dc:type
           rdf:resource="http://purl.org/dc/dcmitype/StillImage" />
        <dc:title></dc:title>
      </cc:Work>
    </rdf:RDF>
  </metadata>
  <g
     transform="translate(-92.930101,-81.676873)"
     id="logo">
    <path
       style="fill:#000000;stroke:#fad222;stroke-width:4.87157;stroke-miterlimit:4;stroke-dasharray:none;stroke-opacity:1"
       d="m 101.34298,84.224554 c -4.258798,0.559129 -8.465213,0.814219 -12.677327,1.814125 -13.736419,3.260794 -26.475753,10.64047 -36.048409,21.038131 -5.117707,5.55876 -9.411978,11.90332 -12.566764,18.77414 -10.815162,23.55368 -7.829525,51.66844 7.525317,72.52607 4.393626,5.96817 9.806548,11.27496 15.833485,15.58328 7.179197,5.13285 15.247085,8.91442 23.782264,11.159 8.697036,2.28584 17.920914,2.83716 26.828754,1.72962 24.21663,-3.01308 46.00099,-18.81551 56.18216,-41.05094 4.27884,-9.34388 6.49197,-19.51935 6.61481,-29.77697 0.2162,-18.20031 -7.19954,-36.49624 -19.75697,-49.62828 -9.37434,-9.803894 -21.43352,-16.845017 -34.58845,-20.133691 -5.33165,-1.332928 -10.81995,-2.076192 -16.31346,-2.076192 -1.57523,0 -3.25335,-0.16337 -4.81541,0.04171"
       id="path853" />
    <path
       id="path859"
       style="fill:#ffffff;stroke:none;stroke-width:3.77953"
       d="m 472.1582,397.17188 c -0.98809,0.0209 -1.97678,0.0931 -2.95898,0.2207 -14.40548,1.872 -27.08174,15.07155 -28.53516,29.60742 -1.58487,15.84922 14.11653,28.86568 29.65039,27.00781 14.95745,-1.78881 28.48004,-14.57909 30.02149,-29.97851 1.5739,-15.73165 -13.35627,-27.17156 -28.17774,-26.85742 z m 1.10547,15.27929 c 5.30949,-0.14018 11.39273,2.90264 10.67774,8.97656 -0.90259,7.61912 -7.369,15.88897 -15.11329,17.28516 -5.67768,1.02365 -12.34461,-2.74032 -11.71093,-9.11328 0.70533,-7.09576 6.75083,-15.35892 13.93945,-16.89258 0.70479,-0.15042 1.44853,-0.23583 2.20703,-0.25586 z"
       transform="scale(0.26458333)" />
    <path
       id="path899"
       style="fill:#ffffff;stroke:none;stroke-width:3.77953"
       d="m 470.9707,726.67773 c -1.16822,-0.0354 -2.37904,0.0182 -3.6289,0.17188 -16.65857,2.04283 -29.03617,16.7339 -27.00782,33.69336 1.54625,12.92942 10.14628,29.19324 25.52344,27.37695 13.57943,-1.60085 25.50123,-9.96174 28.05664,-24.03515 2.85538,-15.73232 -5.41999,-36.67633 -22.94336,-37.20704 z m -3.40625,15.34766 c 4.70557,-0.28792 7.65274,4.00128 9.11524,8.11719 2.79314,7.87056 2.05849,20.46664 -8.22266,22.16406 -5.68395,0.94341 -9.21033,-3.95699 -10.69531,-8.79297 -2.50791,-8.16775 -1.25126,-19.49519 8.83789,-21.36719 0.32941,-0.0613 0.65114,-0.10189 0.96484,-0.12109 z"
       transform="scale(0.26458333)" />
    <path
       style="fill:#fad222;fill-opacity:1;stroke:none;stroke-width:1"
       d="m 113.33233,193.16848 c 0.49176,1.66378 0.0983,3.9624 0.0983,5.69988 v 12.28423 c -4.3497,-0.0118 -7.71637,-3.91523 -10.10943,-7.07571 -1.16612,-1.53995 -2.39867,-3.63122 -4.238548,-4.43412 -1.92656,-0.84122 -4.020087,1.00633 -3.330991,3.05828 0.470338,1.4004 1.828581,1.81807 3.134443,2.06375 l -0.491369,5.99471 c -1.994467,-0.15921 -4.091925,-0.95031 -5.354154,-2.55512 -2.275727,-2.89319 -2.1691,-9.01957 -0.300128,-12.08768 1.998595,-3.28137 6.40706,-3.42092 9.290307,-1.30115 2.67413,1.96548 4.32582,5.21638 6.48617,7.68894 l 0.0983,-3.24303 v -5.9947 l 4.71714,-0.0983"
       id="path901" />
    <path
       style="fill:#ffffff;stroke:none;stroke-width:1"
       d="m 81.982988,198.47527 3.836216,-4.22578 1.47057,-1.38762 1.081012,0.47171 2.456845,1.50556 c -0.802307,1.1439 -1.89069,2.12369 -2.841194,3.14476 -1.611789,1.7306 -3.175227,3.51132 -4.822788,5.20851 -0.627871,0.64664 -1.743869,2.50697 -2.654769,2.66519 -0.528713,0.0924 -1.429196,-0.67318 -1.867202,-0.93557 -0.403513,-0.24175 -1.231469,-0.56016 -1.462609,-0.98175 -0.266126,-0.48548 0.150653,-1.69523 0.245389,-2.22198 0.345826,-1.92223 0.553478,-3.90147 1.020672,-5.79815 -1.244441,0.95129 -2.248603,2.38609 -3.323227,3.52901 -0.469061,0.49923 -1.28837,1.86426 -1.985033,1.98612 -0.742262,0.1307 -2.136866,-1.09183 -2.750193,-1.46625 -0.238609,-0.14545 -0.748453,-0.35379 -0.653914,-0.7115 0.196253,-0.74492 1.42556,-1.62447 1.931474,-2.19937 1.843027,-2.09618 3.812827,-4.07935 5.683175,-6.14998 0.561831,-0.62207 1.643924,-2.30059 2.47365,-2.51089 0.31084,-0.0786 0.635831,0.2162 0.884366,0.36263 0.672783,0.39506 2.148462,0.93163 2.548535,1.61071 0.274577,0.46581 -0.153897,1.69522 -0.250009,2.20821 -0.362532,1.93501 -0.86589,3.9339 -1.020966,5.89643"
       id="path897" />
    <path
       style="fill:#ffffff;stroke:none;stroke-width:1"
       d="m 138.39216,182.65318 0.0983,0.0983 -0.0983,-0.0983"
       id="path895" />
    <path
       style="fill:#ffffff;stroke:none;stroke-width:1"
       d="m 78.739952,188.05824 c -0.803389,0.37541 -1.596066,0.84418 -2.358572,1.29722 -0.301111,0.17886 -0.704132,0.50611 -1.079538,0.40194 -0.508272,-0.14053 -0.991091,-0.92181 -1.320407,-1.30606 -0.903038,-1.05448 -1.806961,-2.10699 -2.71963,-3.15361 -0.365775,-0.41963 -1.416518,-1.20189 -1.73925,-0.16706 -0.124709,0.39997 0.700398,1.08101 0.935764,1.35519 1.002196,1.16946 2.529666,2.4313 3.171394,3.83268 l -2.260298,1.20975 -1.064305,0.39113 -1.023522,-1.01124 -2.302949,-2.64454 -1.121402,-1.10558 -1.563537,0.70364 c 1.335148,1.9183 3.805359,3.5467 4.717144,5.69988 -0.743442,0.4383 -1.506636,0.84319 -2.260298,1.2638 -0.300129,0.16706 -0.717301,0.51201 -1.080914,0.48154 -0.707375,-0.0599 -1.556657,-1.53602 -1.993288,-2.04016 l -3.930953,-4.5206 c -0.602222,-0.6948 -1.451209,-1.42792 -1.839489,-2.2603 3.021625,-1.99299 6.380821,-3.56832 9.53256,-5.34806 0.813806,-0.45992 1.653556,-0.8766 2.456846,-1.35421 0.326564,-0.19458 0.773611,-0.5582 1.177812,-0.51791 0.678384,0.0678 1.555576,1.51932 1.979726,2.01167 l 3.819903,4.42232 c 0.623646,0.72231 1.518527,1.45839 1.867203,2.35857"
       id="path893" />
    <path
       style="fill:#ffffff;stroke:none;stroke-width:1"
       d="m 147.53163,176.16711 c 0.49039,0.68988 1.17339,1.26773 1.76893,1.8672 0.23094,0.23193 0.61421,0.5238 0.61519,0.88447 0.002,0.45894 -0.53657,1.01222 -0.77931,1.37583 -0.65647,0.98471 -1.31294,1.96941 -1.97923,2.94822 -0.20343,0.29973 -0.67907,0.80191 -0.67416,1.17928 0.007,0.51201 0.86677,1.10951 1.24513,1.37584 0.57588,-1.5203 1.88096,-2.9718 2.7841,-4.32405 0.28401,-0.42553 0.69086,-1.34144 1.1724,-1.55568 0.32136,-0.14249 0.61814,0.30367 0.80781,0.49727 0.46582,0.47663 1.97334,1.54978 1.91634,2.23769 -0.0698,0.83926 -1.27068,2.05687 -1.73453,2.75167 -1.50556,2.25932 -3.27841,4.48423 -4.55303,6.87917 -1.14587,-0.32136 -2.25047,-1.99005 -3.05533,-2.84994 -2.12959,-2.27602 -4.37122,-4.47834 -6.5755,-6.68262 1.25103,3.00521 3.07794,5.86596 4.59725,8.74637 0.53559,1.01517 1.59597,2.30354 1.79055,3.43958 0.0629,0.36558 -0.24765,0.58375 -0.49137,0.79897 -0.55525,0.48842 -1.77974,1.9242 -2.55512,1.89177 -0.67318,-0.0285 -1.57828,-0.76752 -2.16202,-1.08789 -1.62742,-0.8943 -3.23125,-1.89865 -4.9137,-2.68386 0.76556,1.56157 1.64413,3.10349 2.49812,4.61887 0.30957,0.54738 1.02304,1.42595 1.04367,2.06375 0.0246,0.71936 -1.75025,1.77482 -2.26423,2.20231 -0.21522,0.17886 -0.54738,0.54444 -0.86382,0.42553 -0.34888,-0.1307 -0.53166,-0.75081 -0.68399,-1.05546 -0.49825,-0.9965 -1.07413,-1.95172 -1.57238,-2.94822 -1.09379,-2.1856 -2.30157,-4.32404 -3.44253,-6.48607 -0.37049,-0.70167 -1.27658,-1.74632 -1.30311,-2.55512 -0.0128,-0.35673 0.35083,-0.59062 0.59357,-0.79405 0.59849,-0.5012 1.66869,-1.79841 2.45685,-1.87998 0.59357,-0.0619 1.55764,0.74394 2.06375,1.0309 1.68932,0.96013 3.39044,1.91732 5.11024,2.82242 l -2.72612,-5.01197 -0.82943,-1.86327 0.7056,-0.76555 2.06376,-1.59695 c -0.30367,-1.00141 0.50807,-1.76107 1.04759,-2.55512 1.21762,-1.7935 2.41656,-3.60173 3.61845,-5.40506 0.28499,-0.42729 1.07511,-2.13873 1.63134,-2.14178 0.27615,-0.001 0.5179,0.34072 0.69676,0.51289 0.60439,0.58277 1.32277,1.19924 1.81315,1.88598 0.33512,0.47043 -0.22897,1.02735 -0.48645,1.41357 -0.83041,1.24513 -1.65395,2.4932 -2.49026,3.7344 -0.39506,0.5867 -1.12032,1.61857 0.0619,1.94484 0.45992,0.12776 0.9454,-0.95031 1.15079,-1.25692 0.77538,-1.16455 1.68441,-3.30004 2.88237,-4.02923"
       id="path891" />
    <path
       style="fill:#ffffff;stroke:none;stroke-width:1"
       d="m 70.484961,179.2136 -2.849941,0.58964 -1.017232,0.0914 -1.240609,-2.54824 -0.700692,-0.90609 -2.937896,0.61127 -7.763632,1.67065 -1.768928,-4.02923 4.618869,-1.0244 6.289524,-1.33417 -1.670655,-3.93095 c 0.886922,-0.11459 1.779641,-0.34013 2.653394,-0.53304 0.317424,-0.0702 0.820389,-0.307 1.140566,-0.18495 0.621876,0.23684 1.122385,2.19092 1.391852,2.78174 1.277166,2.79953 3.044326,5.78145 3.85538,8.74637"
       id="path889" />
    <path
       style="fill:#fad222;fill-opacity:1;stroke:none;stroke-width:1"
       d="m 158.1452,152.28657 0.9051,1.4802 1.65002,0.38701 -1.11639,1.37583 0.13365,1.67065 -1.57238,-0.67121 -1.67065,0.67121 0.15527,-1.67065 -1.03974,-1.47411 1.63233,-0.35025 0.92279,-1.41868"
       id="path887" />
    <path
       style="fill:#fad222;fill-opacity:1;stroke:none;stroke-width:1"
       d="m 148.61264,152.28657 0.9051,1.4802 1.65002,0.38701 -1.11639,1.37583 0.13365,1.67065 -1.57238,-0.677 -1.67065,0.677 0.14151,-1.76018 -1.02598,-1.38458 1.63233,-0.35025 0.92279,-1.41868"
       id="path885" />
    <path
       style="fill:#fad222;fill-opacity:1;stroke:none;stroke-width:1"
       d="m 139.08008,152.28657 c 0.70659,1.20995 0.96407,1.70486 2.45685,1.76893 l -1.02008,1.47411 0.13561,1.67065 -1.67065,-0.68487 -1.57238,0.68487 0.15134,-1.72726 -1.03581,-1.4175 1.63233,-0.35025 0.92279,-1.41868"
       id="path883" />
    <path
       style="fill:#fad222;fill-opacity:1;stroke:none;stroke-width:1"
       d="m 129.54752,152.28657 c 0.70659,1.20995 0.96407,1.70486 2.45685,1.76893 l -1.02008,1.47411 0.13561,1.67065 -1.57238,-0.68516 -1.67065,0.68516 0.13561,-1.67065 -1.11835,-1.37583 1.7306,-0.44853 0.92279,-1.41868"
       id="path881" />
    <path
       style="fill:#fad222;fill-opacity:1;stroke:none;stroke-width:1"
       d="m 120.01496,152.28657 c 0.7062,1.20985 0.96436,1.70486 2.45685,1.76893 l -1.03915,1.39294 0.15468,1.75182 -1.57238,-0.67917 -1.67065,0.67917 0.13335,-1.67065 -1.11609,-1.37583 1.72264,-0.45098 0.93075,-1.41623"
       id="path879" />
    <path
       style="fill:#fad222;fill-opacity:1;stroke:none;stroke-width:1"
       d="m 90.434546,152.28657 c 0.601436,1.25889 1.018805,1.70722 2.456845,1.76893 l -1.061553,1.37584 0.177089,1.76892 -1.572381,-0.66914 -1.670655,0.66914 0.128444,-1.67065 -1.111182,-1.47411 c 1.401385,-0.0289 1.969014,-0.44655 2.456845,-1.76893 h 0.196548"
       id="path877" />
    <path
       style="fill:#fad222;fill-opacity:1;stroke:none;stroke-width:1"
       d="m 80.901986,152.28657 c 0.525175,1.26095 1.070103,1.74033 2.456845,1.76893 l -1.069514,1.37584 0.18505,1.76892 -1.670655,-0.66089 -1.670655,0.66089 0.177089,-1.76892 -1.061554,-1.27756 c 1.352248,-0.42759 1.860127,-0.43398 2.456846,-1.86721 h 0.196548"
       id="path875" />
    <path
       style="fill:#fad222;fill-opacity:1;stroke:none;stroke-width:1"
       d="m 71.271146,152.28657 0.922792,1.47529 1.632328,0.39192 -1.069514,1.27756 0.08678,1.76892 -1.572381,-0.66089 -1.670655,0.66089 0.193796,-1.74082 -1.07826,-1.40394 1.706328,-0.35025 0.848791,-1.41868"
       id="path873" />
    <path
       style="fill:#fad222;fill-opacity:1;stroke:none;stroke-width:1"
       d="m 61.836856,152.2866 c 0.477709,1.31275 1.066369,1.74024 2.456845,1.76893 l -1.111182,1.47411 0.128444,1.67065 -1.572381,-0.66089 -1.572381,0.66089 -0.09827,-0.0983 0.16225,-1.67065 -1.046714,-1.37584 c 1.396667,-0.0599 1.923218,-0.48734 2.456845,-1.76893 h 0.196548"
       id="path871" />
    <path
       style="fill:#fad222;fill-opacity:1;stroke:none;stroke-width:1"
       d="m 52.206017,152.2866 c 0.72241,1.23776 1.035511,1.73758 2.555119,1.76893 l -1.116096,1.47411 0.133358,1.67065 -1.670655,-0.67022 -1.474108,0.67022 0.06752,-1.76892 -1.050253,-1.37584 1.643728,-0.35025 0.911392,-1.41868"
       id="path869" />
    <path
       style="fill:#fad222;fill-opacity:1;stroke:none;stroke-width:1"
       d="m 105.17565,146.88154 1.43726,2.75167 0.86137,1.51312 1.33751,0.28254 3.43958,0.46464 c -0.67288,1.44285 -2.75511,2.16369 -3.31045,3.63613 -0.15773,0.41815 0.0706,1.04888 0.14141,1.47411 0.18299,1.09762 0.46789,2.22924 0.51565,3.34131 l -3.14477,-1.49848 -1.27756,-0.5865 -1.37583,0.5866 -3.14476,1.49838 0.58974,-3.53786 0.094,-1.27756 -3.23891,-3.53786 c 1.053987,-0.33324 2.24792,-0.38641 3.34131,-0.54827 0.41698,-0.0617 1.00623,-0.0398 1.35736,-0.29718 1.2183,-0.89282 1.4234,-3.1138 2.37704,-4.26479"
       id="path867" />
    <path
       style="fill:#ffffff;stroke:none;stroke-width:1"
       d="m 68.224699,140.2972 c -3.129137,-1.95703 -5.45459,-5.23014 -8.648096,-7.07572 l -1.867203,3.63613 c -0.822846,-0.3815 -1.571103,-1.19049 -2.260297,-1.7818 -0.238314,-0.20451 -0.631999,-0.45009 -0.706,-0.77715 -0.182101,-0.80565 1.123565,-2.45164 1.50585,-3.14093 1.43352,-2.5845 3.04354,-5.24821 4.212114,-7.96018 0.893801,0.25031 1.751928,1.26498 2.456747,1.85934 0.281555,0.23733 0.643596,0.47624 0.540605,0.89243 -0.197236,0.7969 -0.818326,1.64265 -1.214763,2.35847 -0.176008,0.31782 -0.49589,0.70148 -0.256298,1.06431 0.442134,0.66954 1.396569,1.21614 2.011567,1.72804 l 4.1275,3.43959 c 0.505914,0.4211 1.956337,1.25112 2.06434,1.92862 0.06162,0.38641 -0.329709,0.85813 -0.505619,1.17545 -0.489895,0.88378 -0.902743,1.80785 -1.460447,2.6534"
       id="path865" />
    <path
       style="fill:#ffffff;stroke:none;stroke-width:1"
       d="m 138.7853,122.80446 4.5206,-3.23056 1.8672,-1.18056 0.88446,0.66001 2.16203,1.98218 v 0.0983 l -11.89113,8.45155 14.2497,-4.61887 5.79815,10.12221 -3.83267,1.27755 -2.52466,-4.42232 -1.13211,-1.73424 -1.3552,0.26014 c 1.17241,1.77118 2.61114,3.90304 3.34131,5.89642 l -2.45684,0.82 -1.06234,0.22633 -0.88349,-1.24287 -1.80234,-3.14477 -0.80486,-1.15845 -1.7365,0.37226 c 1.20385,2.0609 2.82046,4.24347 3.63613,6.48608 -0.88446,0.28764 -1.76401,0.586 -2.65339,0.85704 -0.29581,0.0901 -0.73509,0.35683 -1.04858,0.25266 -0.6663,-0.2215 -1.29623,-1.9926 -1.63233,-2.58381 -1.41023,-2.48024 -3.17228,-4.94622 -4.29653,-7.56708 -0.77833,0.17138 -1.64216,-0.96643 -2.16203,-1.47303 -0.29777,-0.29109 -0.90018,-0.66109 -1.00435,-1.08603 -0.1425,-0.58669 0.51102,-1.61739 0.72919,-2.15809 0.72526,-1.79743 1.4063,-3.61195 2.14237,-5.40506 -1.61366,0.91926 -3.1084,2.17451 -4.61887,3.2568 -0.40784,0.29207 -1.23531,1.14764 -1.76893,1.05143 -1.02893,-0.18554 -2.09717,-1.94012 -2.94822,-2.5393 v -0.29482 c 3.01996,-1.86396 5.83845,-4.12799 8.74637,-6.16373 l 2.45292,-1.7309 c 0.28696,-0.19989 0.62698,-0.59092 0.98667,-0.63937 0.58276,-0.0785 1.48197,1.09212 1.8672,1.44954 0.36558,0.33894 1.09182,0.75612 1.18125,1.2863 0.0963,0.57353 -0.53166,1.53357 -0.74393,2.06375 -0.73214,1.83124 -1.40433,3.70247 -2.20625,5.50334"
       id="path863" />
    <path
       style="fill:#ffffff;stroke:none;stroke-width:1"
       d="m 85.815713,104.03416 c 0.565762,3.32834 1.966557,6.81028 3.014058,10.02393 0.425623,1.30596 1.074624,2.76071 1.253384,4.12357 0.05032,0.38444 -0.232614,0.54886 -0.533529,0.71337 -0.637404,0.34848 -2.336951,1.70112 -3.045997,1.41111 -0.674256,-0.27576 -1.310383,-1.02686 -1.867202,-1.49022 -1.387234,-1.15472 -2.74636,-2.45036 -4.225775,-3.48027 l 2.260298,7.37053 -3.34131,1.76893 c 0.304649,0.87464 -1.104302,1.8905 -1.670654,2.45685 -1.506931,1.50693 -2.916866,3.11105 -4.422322,4.61887 -0.612148,0.61313 -1.193339,1.46556 -1.965477,1.8672 -0.531661,-1.12386 -1.402662,-2.11584 -2.09618,-3.14476 -1.375539,-2.04066 -2.75206,-4.08829 -4.179487,-6.09298 -0.552201,-0.77558 -1.090938,-1.56629 -1.618963,-2.35857 -0.17876,-0.26819 -0.521933,-0.6317 -0.432602,-0.98126 0.147116,-0.5752 0.948834,-1.1728 1.349791,-1.57386 1.14548,-1.14587 2.300689,-2.31012 3.389071,-3.50975 0.901859,-0.99414 2.070433,-2.69929 3.293549,-3.27114 l 1.605892,2.35857 0.432798,0.98274 -1.153833,1.27756 -2.437977,2.58322 -1.11187,1.34773 0.60124,1.17928 3.028406,-3.13601 1.787011,-1.6794 c 0.420317,0.75425 0.96269,1.44354 1.441382,2.16202 0.177974,0.26721 0.512007,0.63436 0.442723,0.98274 -0.09719,0.48921 -0.765553,0.93832 -1.096441,1.27756 -0.941758,0.96544 -2.599047,2.21263 -3.163139,3.43958 -0.188587,0.4101 0.545223,1.64697 1.040327,1.37171 0.967604,-0.53785 2.043014,-2.00891 2.781247,-2.84581 0.664626,-0.75357 1.36581,-1.58143 2.190032,-2.16203 l 1.179286,1.57238 -1.999283,-6.3878 -2.029944,-6.68261 c 0.938024,-0.43801 2.505197,-1.84431 3.537858,-1.81041 0.630033,0.0206 1.412981,0.95837 1.867202,1.34577 1.498774,1.27795 2.991062,2.56455 4.520596,3.80594 l -1.638224,-5.20851 -0.629051,-2.1517 0.891442,-0.67672 2.751667,-1.39735"
       id="path857" />
    <path
       style="fill:#fad222;fill-opacity:1;stroke:none;stroke-width:1"
       d="m 113.43066,101.18422 v 17.98411 c -4.19787,-0.18073 -7.49594,-3.66689 -9.85274,-6.7809 -1.28582,-1.69905 -2.63118,-4.04357 -4.69179,-4.879 -1.926854,-0.78127 -3.655589,1.27245 -3.151837,3.11007 0.37688,1.37495 1.851773,1.96027 3.151837,2.06375 -0.0038,1.40493 -0.205392,2.8241 -0.303567,4.22578 -0.02771,0.39526 0.04236,1.29938 -0.205393,1.61139 -0.31939,0.40214 -1.451307,-0.0432 -1.849611,-0.15222 -1.946117,-0.53274 -3.387695,-1.68943 -4.247198,-3.52292 -0.629542,-1.34272 -0.764767,-2.96021 -0.764767,-4.42232 0,-3.92879 1.034332,-9.01722 5.994703,-9.0411 0.671898,-0.003 1.308221,0.006 1.965476,0.16245 0.893707,0.21257 1.709377,0.64507 2.456847,1.17093 2.8467,2.00292 3.90216,5.74892 6.68262,7.70772 v -9.23774 h 4.81542"
       id="path855" />
  </g>
</svg>
